<!-- Generator: Adobe Illustrator 21.1.0, SVG Export Plug-In  -->
<svg version="1.1"
	 xmlns="http://www.w3.org/2000/svg" xmlns:xlink="http://www.w3.org/1999/xlink" xmlns:a="http://ns.adobe.com/AdobeSVGViewerExtensions/3.0/"
	 x="0px" y="0px" width="54.4px" height="54.4px" viewBox="0 0 54.4 54.4" style="enable-background:new 0 0 54.4 54.4;"
	 xml:space="preserve">
<defs>
</defs>
<path d="M27.2,0C12.2,0,0,12.2,0,27.2c0,15,12.2,27.2,27.2,27.2c15,0,27.2-12.2,27.2-27.2C54.4,12.2,42.2,0,27.2,0
	L27.2,0z M27.2,52.3L27.2,52.3c-13.8,0-25.1-11.2-25.1-25.1c0-13.8,11.2-25.1,25.1-25.1c13.8,0,25.1,11.2,25.1,25.1
	C52.3,41.1,41,52.3,27.2,52.3L27.2,52.3z M18.6,24.6L18.6,24.6c-2.3,0-4.2-1.9-4.2-4.1c0-2.3,1.9-4.2,4.2-4.2c2.3,0,4.2,1.9,4.2,4.2
	C22.8,22.7,20.9,24.6,18.6,24.6L18.6,24.6z M32.4,20.5L32.4,20.5c0-2.3,1.9-4.2,4.2-4.2c2.3,0,4.1,1.9,4.1,4.2
	c0,2.2-1.8,4.1-4.1,4.1C34.3,24.6,32.4,22.7,32.4,20.5L32.4,20.5z M40.3,29.7L40.3,29.7l1.5,3.3l-24,10.7l-1.5-3.4L40.3,29.7z"/>
</svg>
