<?xml version="1.0" encoding="utf-8"?>
<!-- Generator: Adobe Illustrator 21.1.0, SVG Export Plug-In . SVG Version: 6.00 Build 0)  -->
<svg version="1.1" id="Layer_1" xmlns="http://www.w3.org/2000/svg" xmlns:xlink="http://www.w3.org/1999/xlink" x="0px" y="0px"
	 viewBox="0 0 100 100" style="enable-background:new 0 0 100 100;" xml:space="preserve">
<path d="M49,1.5c-27.1,0-49,21.9-49,49c0,27.1,21.9,49,49,49c27,0,49-21.9,49-49C98,23.4,76,1.5,49,1.5L49,1.5z
	 M49,95.7L49,95.7c-24.9,0-45.1-20.1-45.1-45.1C3.9,25.7,24.1,5.4,49,5.4c24.9,0,45.1,20.3,45.1,45.1C94.1,75.5,73.9,95.7,49,95.7
	L49,95.7z M33.5,45.9L33.5,45.9c-4.2,0-7.6-3.4-7.6-7.4c0-4.2,3.4-7.6,7.6-7.6c4.2,0,7.6,3.4,7.6,7.6C41.1,42.5,37.7,45.9,33.5,45.9
	L33.5,45.9z M58.4,38.5L58.4,38.5c0-4.2,3.4-7.6,7.6-7.6c4.2,0,7.4,3.4,7.4,7.6c0,4-3.3,7.4-7.4,7.4C61.8,45.9,58.4,42.5,58.4,38.5
	L58.4,38.5z M72.5,55L72.5,55l2.7,6L32,80.2l-2.7-6.1L72.5,55z"/>
</svg>
