<?xml version="1.0" encoding="utf-8"?>
<!-- Generator: Adobe Illustrator 21.1.0, SVG Export Plug-In . SVG Version: 6.00 Build 0)  -->
<svg version="1.1" id="Layer_1" xmlns="http://www.w3.org/2000/svg" xmlns:xlink="http://www.w3.org/1999/xlink" x="0px" y="0px"
	 viewBox="0 0 100 100" style="enable-background:new 0 0 100 100;" xml:space="preserve">
<path d="M49.1,1.4C22,1.4,0,23.4,0,50.7C0,78,22,100,49.1,100c27.4,0,49.3-22,49.3-49.3C98.4,23.4,76.6,1.4,49.1,1.4
	L49.1,1.4z M49.1,96.1L49.1,96.1c-25,0-45.3-20.2-45.3-45.4c0-24.9,20.2-45.4,45.3-45.4c25.2,0,45.5,20.5,45.5,45.4
	C94.7,75.9,74.3,96.1,49.1,96.1L49.1,96.1z M26.1,38.6L26.1,38.6c0-4.2,3.4-7.5,7.5-7.5c4.3,0,7.6,3.3,7.6,7.5
	c0,4.2-3.3,7.5-7.6,7.5C29.5,46.1,26.1,42.8,26.1,38.6L26.1,38.6z M58.7,38.6L58.7,38.6c0-4.2,3.3-7.5,7.6-7.5
	c4.2,0,7.5,3.3,7.5,7.5c0,4.2-3.3,7.5-7.5,7.5C62,46.1,58.7,42.8,58.7,38.6L58.7,38.6z M75.8,78.9L75.8,78.9
	C70,70.6,60.4,65.2,49.7,65.2c-10.9,0-20.4,5.4-26.2,13.8C27,67.6,37.3,59.4,49.7,59.4C62,59.2,72.4,67.5,75.8,78.9L75.8,78.9z"/>
</svg>
