<!-- Generator: Adobe Illustrator 21.1.0, SVG Export Plug-In  -->
<svg version="1.1"
	 xmlns="http://www.w3.org/2000/svg" xmlns:xlink="http://www.w3.org/1999/xlink" xmlns:a="http://ns.adobe.com/AdobeSVGViewerExtensions/3.0/"
	 x="0px" y="0px" width="54.3px" height="54.4px" viewBox="0 0 54.3 54.4" style="enable-background:new 0 0 54.3 54.4;"
	 xml:space="preserve">
<defs>
</defs>
<path d="M27.1,0C12.2,0,0,12.2,0,27.2c0,15,12.2,27.2,27.1,27.2c15.1,0,27.2-12.2,27.2-27.2C54.3,12.2,42.2,0,27.1,0
	L27.1,0z M27.1,52.3L27.1,52.3c-13.8,0-25-11.2-25-25.1c0-13.7,11.2-25.1,25-25.1c13.9,0,25.1,11.3,25.1,25.1
	C52.3,41.1,41,52.3,27.1,52.3L27.1,52.3z M14.4,20.5L14.4,20.5c0-2.3,1.9-4.1,4.1-4.1c2.4,0,4.2,1.8,4.2,4.1c0,2.3-1.8,4.1-4.2,4.1
	C16.3,24.6,14.4,22.8,14.4,20.5L14.4,20.5z M32.4,20.5L32.4,20.5c0-2.3,1.8-4.1,4.2-4.1c2.3,0,4.1,1.8,4.1,4.1
	c0,2.3-1.8,4.1-4.1,4.1C34.2,24.6,32.4,22.8,32.4,20.5L32.4,20.5z M41.8,42.7L41.8,42.7c-3.2-4.5-8.5-7.5-14.4-7.5
	c-6,0-11.2,3-14.5,7.6C14.9,36.5,20.6,32,27.4,32C34.2,31.9,39.9,36.5,41.8,42.7L41.8,42.7z"/>
</svg>
