<?xml version="1.0" encoding="utf-8"?>
<!-- Generator: Adobe Illustrator 21.1.0, SVG Export Plug-In . SVG Version: 6.00 Build 0)  -->
<svg version="1.1" id="Layer_1" xmlns="http://www.w3.org/2000/svg" xmlns:xlink="http://www.w3.org/1999/xlink" x="0px" y="0px"
	 viewBox="0 0 100 100" style="enable-background:new 0 0 100 100;" xml:space="preserve">
<path d="M50.1,0.1c-27.5,0-50,22.3-50,50c0,27.7,22.5,50,50,50c27.7,0,50-22.3,50-50C100.1,22.5,77.8,0.1,50.1,0.1
	L50.1,0.1z M50.1,96.2L50.1,96.2c-25.4,0-46-20.5-46-46c0-25.4,20.7-46.1,46-46.1c25.4,0,46.1,20.7,46.1,46.1
	C96.2,75.7,75.5,96.2,50.1,96.2L50.1,96.2z M23.7,60.6L23.7,60.6h52.9C73.1,72.2,62.4,80.5,50,80.5C37.5,80.5,27,72,23.7,60.6
	L23.7,60.6z M29.3,34.3L29.3,34.3l-7.1-5l8.5,0.5l2.4-8.4l2.3,8.1l8.8-0.2L37,33.9l2.9,8.4l-6.5-5.3l-7.1,5.3L29.3,34.3z M61.7,34.3
	L61.7,34.3l-7.3-5l8.5,0.5l2.6-8.4l2.1,8.1l8.8-0.2l-7.1,4.6l2.9,8.4l-6.5-5.3l-7,5.3L61.7,34.3z"/>
</svg>
