<!-- Generator: Adobe Illustrator 21.1.0, SVG Export Plug-In  -->
<svg version="1.1"
	 xmlns="http://www.w3.org/2000/svg" xmlns:xlink="http://www.w3.org/1999/xlink" xmlns:a="http://ns.adobe.com/AdobeSVGViewerExtensions/3.0/"
	 x="0px" y="0px" width="54.4px" height="54.4px" viewBox="0 0 54.4 54.4" style="enable-background:new 0 0 54.4 54.4;"
	 xml:space="preserve">
<defs>
</defs>
<path d="M27.2,0C12.2,0,0,12.2,0,27.2c0,15,12.2,27.2,27.2,27.2c15,0,27.2-12.2,27.2-27.2C54.4,12.2,42.2,0,27.2,0
	L27.2,0z M27.2,52.3L27.2,52.3c-13.8,0-25.1-11.2-25.1-25.1c0-13.8,11.2-25.1,25.1-25.1c13.8,0,25.1,11.2,25.1,25.1
	C52.3,41.1,41,52.3,27.2,52.3L27.2,52.3z M12.8,32.9L12.8,32.9h28.8c-1.9,6.3-7.7,10.8-14.5,10.8C20.3,43.7,14.6,39.1,12.8,32.9
	L12.8,32.9z M15.9,18.6L15.9,18.6L12,15.9l4.6,0.2l1.3-4.5l1.2,4.4l4.8-0.1l-3.9,2.5l1.6,4.5L18.1,20l-3.9,2.9L15.9,18.6z
	 M33.5,18.6L33.5,18.6l-4-2.7l4.6,0.2l1.4-4.5l1.2,4.4l4.8-0.1l-3.9,2.5l1.6,4.5L35.6,20l-3.8,2.9L33.5,18.6z"/>
</svg>
