<?xml version="1.0" encoding="utf-8"?>
<!-- Generator: Adobe Illustrator 21.1.0, SVG Export Plug-In . SVG Version: 6.00 Build 0)  -->
<svg version="1.1" id="Layer_1" xmlns="http://www.w3.org/2000/svg" xmlns:xlink="http://www.w3.org/1999/xlink" x="0px" y="0px"
	 viewBox="0 0 100 100" style="enable-background:new 0 0 100 100;" xml:space="preserve">
<path d="M74.3,67.4c0,5.4-4.2,9.4-9.6,9.4H34.6c-5.4,0-9.4-4-9.4-9.4c0-5.2,4-9.3,9.4-9.3h30.1
	C70.1,58.1,74.3,62.1,74.3,67.4L74.3,67.4z M32.6,42.8c2.1,0,3.7-1.6,3.7-3.7c0-2-1.7-3.7-3.7-3.7c-2.1,0-3.7,1.8-3.7,3.7
	C28.9,41.2,30.5,42.8,32.6,42.8L32.6,42.8z M43.7,32.3l-12.4-8.4l-2.2,3l12.6,8.5L43.7,32.3z M70.2,26.9l-2.3-3l-12.4,8.4l2.1,3.1
	L70.2,26.9z M70.4,39.1c0,2.1-1.6,3.7-3.7,3.7c-2.1,0-3.7-1.6-3.7-3.7c0-2,1.6-3.7,3.7-3.7C68.7,35.3,70.4,37.1,70.4,39.1L70.4,39.1
	z M68.6,5.8H30.7c-7,0-13.5,2.8-18.1,7.5C7.9,17.9,5,24.4,5,31.4v37.9c0,7,2.8,13.5,7.5,18.1c4.6,4.6,11.1,7.5,18.1,7.5h37.9
	c7,0,13.5-2.8,18.1-7.5c4.6-4.6,7.5-11.1,7.5-18.1V31.4c0-7-2.8-13.5-7.5-18.1C82.1,8.6,75.6,5.8,68.6,5.8L68.6,5.8z M30.7,1h37.9
	C77,1,84.5,4.4,90,10c5.5,5.5,9,13,9,21.4v37.9c0,8.4-3.4,15.9-9,21.4c-5.5,5.5-13,9-21.4,9H30.7c-8.4,0-15.9-3.4-21.4-9
	c-5.5-5.5-8.8-13-8.8-21.4V31.4C0.4,23,3.7,15.5,9.2,10C14.8,4.4,22.3,1,30.7,1L30.7,1z"/>
</svg>
