<!-- Generator: Adobe Illustrator 21.1.0, SVG Export Plug-In  -->
<svg version="1.1"
	 xmlns="http://www.w3.org/2000/svg" xmlns:xlink="http://www.w3.org/1999/xlink" xmlns:a="http://ns.adobe.com/AdobeSVGViewerExtensions/3.0/"
	 x="0px" y="0px" width="54.4px" height="54.5px" viewBox="0 0 54.4 54.5" style="enable-background:new 0 0 54.4 54.5;"
	 xml:space="preserve">
<defs>
</defs>
<path d="M40.8,36.6c0,3-2.3,5.2-5.3,5.2H18.9c-3,0-5.2-2.2-5.2-5.2c0-2.9,2.2-5.1,5.2-5.1h16.6
	C38.4,31.5,40.8,33.7,40.8,36.6L40.8,36.6z M17.8,23.1c1.2,0,2.1-0.9,2.1-2.1c0-1.1-0.9-2.1-2.1-2.1c-1.2,0-2.1,1-2.1,2.1
	C15.7,22.2,16.6,23.1,17.8,23.1L17.8,23.1z M23.9,17.3L17,12.6l-1.2,1.7l6.9,4.7L23.9,17.3z M38.5,14.3l-1.2-1.7l-6.9,4.6l1.2,1.7
	L38.5,14.3z M38.6,21c0,1.2-0.9,2.1-2.1,2.1c-1.2,0-2.1-0.9-2.1-2.1c0-1.1,0.9-2.1,2.1-2.1C37.7,18.9,38.6,19.9,38.6,21L38.6,21z
	 M37.6,2.6H16.7c-3.9,0-7.4,1.6-10,4.1c-2.6,2.6-4.1,6.1-4.1,10v20.9c0,3.9,1.6,7.4,4.1,10c2.6,2.6,6.1,4.1,10,4.1h20.9
	c3.9,0,7.4-1.6,10-4.1c2.6-2.6,4.1-6.1,4.1-10V16.8c0-3.9-1.6-7.4-4.1-10C45.1,4.2,41.5,2.6,37.6,2.6L37.6,2.6z M16.7,0h20.9
	c4.6,0,8.8,1.9,11.8,5c3.1,3.1,5,7.2,5,11.8v20.9c0,4.6-1.9,8.8-5,11.8c-3.1,3.1-7.2,5-11.8,5H16.7c-4.6,0-8.8-1.9-11.8-5
	C1.8,46.5,0,42.3,0,37.7V16.8C0,12.2,1.8,8,4.9,5C7.9,1.9,12.1,0,16.7,0L16.7,0z"/>
</svg>
