<?xml version="1.0" encoding="utf-8"?>
<!-- Generator: Adobe Illustrator 21.1.0, SVG Export Plug-In . SVG Version: 6.00 Build 0)  -->
<svg version="1.1" id="Layer_1" xmlns="http://www.w3.org/2000/svg" xmlns:xlink="http://www.w3.org/1999/xlink" x="0px" y="0px"
	 viewBox="0 0 100 100" style="enable-background:new 0 0 100 100;" xml:space="preserve">
<path d="M50.1-0.1C22.9-0.1,0.7,22,0.7,49.5C0.7,76.9,22.9,99,50.1,99c27.4,0,49.5-22.1,49.5-49.5
	C99.7,22,77.5-0.1,50.1-0.1L50.1-0.1z M50.1,95.1L50.1,95.1C25,95.1,4.7,74.8,4.7,49.5C4.7,24.3,25,3.8,50.1,3.8
	c25.3,0,45.6,20.5,45.6,45.6C95.8,74.8,75.4,95.1,50.1,95.1L50.1,95.1z M26.9,37.3L26.9,37.3c0-4.2,3.5-7.5,7.5-7.5
	c4.4,0,7.7,3.3,7.7,7.5c0,4.2-3.3,7.5-7.7,7.5C30.4,44.8,26.9,41.5,26.9,37.3L26.9,37.3z M59.8,37.3L59.8,37.3
	c0-4.2,3.3-7.5,7.7-7.5c4.2,0,7.5,3.3,7.5,7.5c0,4.2-3.3,7.5-7.5,7.5C63.1,44.8,59.8,41.5,59.8,37.3L59.8,37.3z M77.5,57.1
	L77.5,57.1c-3.3,11.3-13.9,19.6-26.2,19.6c-12.5,0-22.9-8.3-26.2-19.7c5.7,8.3,15.4,13.9,26.2,13.9C62.2,70.8,71.8,65.4,77.5,57.1
	L77.5,57.1z"/>
</svg>
