<!-- Generator: Adobe Illustrator 21.1.0, SVG Export Plug-In  -->
<svg version="1.1"
	 xmlns="http://www.w3.org/2000/svg" xmlns:xlink="http://www.w3.org/1999/xlink" xmlns:a="http://ns.adobe.com/AdobeSVGViewerExtensions/3.0/"
	 x="0px" y="0px" width="54.5px" height="54.4px" viewBox="0 0 54.5 54.4" style="enable-background:new 0 0 54.5 54.4;"
	 xml:space="preserve">
<defs>
</defs>
<path d="M16.8,0h20.9c4.6,0,8.8,1.9,11.8,5c3.1,3,5,7.2,5,11.8v20.9c0,4.5-1.9,8.8-5,11.8c-3,3-7.2,4.9-11.8,4.9H16.8
	c-4.6,0-8.8-1.9-11.8-4.9c-3.1-3.1-5-7.3-5-11.8V16.8C0,12.2,1.9,7.9,5,5C8,1.9,12.2,0,16.8,0L16.8,0z M37.7,2.6H16.8
	c-3.9,0-7.4,1.6-10,4.2c-2.6,2.6-4.1,6-4.1,10v20.9c0,3.9,1.6,7.4,4.1,10c2.6,2.5,6.1,4.1,10,4.1h20.9c3.9,0,7.4-1.7,10-4.1
	c2.6-2.6,4.1-6.1,4.1-10V16.8c0-4-1.6-7.4-4.1-10C45.1,4.1,41.6,2.6,37.7,2.6L37.7,2.6z M27.2,34.5c7.4,0,11.5,4.2,11.5,4.2v2.1
	c0,0-4.1-4.2-11.5-4.2c-7.3,0-11.4,4.2-11.4,4.2v-2.1C15.8,38.7,19.9,34.5,27.2,34.5L27.2,34.5z M20.8,15.6l-6.9,4.7l1.2,1.7
	l6.9-4.7L20.8,15.6z M32.6,17.4l6.9,4.6l1.2-1.7l-6.9-4.7L32.6,17.4z"/>
</svg>
