<?xml version="1.0" encoding="utf-8"?>
<!-- Generator: Adobe Illustrator 21.1.0, SVG Export Plug-In . SVG Version: 6.00 Build 0)  -->
<svg version="1.1" id="Layer_1" xmlns="http://www.w3.org/2000/svg" xmlns:xlink="http://www.w3.org/1999/xlink" x="0px" y="0px"
	 viewBox="0 0 100 100" style="enable-background:new 0 0 100 100;" xml:space="preserve">
<path d="M30.9,2h37.3c8.2,0,15.8,3.4,21.1,8.8c5.4,5.3,8.8,12.8,8.8,21.1v37.3c0,8.1-3.4,15.6-8.8,21.1
	c-5.3,5.3-12.8,8.7-21.1,8.7H30.9c-8.2,0-15.6-3.4-21.1-8.7C4.3,84.8,1,77.3,1,69.2V31.9c0-8.2,3.4-15.8,8.8-21.1
	C15.2,5.4,22.6,2,30.9,2L30.9,2z M68.1,6.6H30.9c-6.9,0-13.3,2.8-17.8,7.5c-4.6,4.6-7.4,10.7-7.4,17.8v37.3c0,6.9,2.8,13.3,7.4,17.8
	c4.6,4.4,10.9,7.4,17.8,7.4h37.3c6.9,0,13.3-2.9,17.8-7.4c4.6-4.6,7.4-10.9,7.4-17.8V31.9c0-7.1-2.8-13.3-7.4-17.8
	C81.4,9.4,75,6.6,68.1,6.6L68.1,6.6z M49.4,63.4c13.1,0,20.5,7.5,20.5,7.5v3.7c0,0-7.4-7.5-20.5-7.5c-13,0-20.3,7.5-20.3,7.5v-3.7
	C29.1,70.9,36.4,63.4,49.4,63.4L49.4,63.4z M37.9,29.8l-12.4,8.4l2.2,3.1L40,32.9L37.9,29.8z M59,33.1l12.4,8.2l2.1-3.1L61,29.8
	L59,33.1z"/>
</svg>
