<?xml version="1.0" encoding="utf-8"?>
<!-- Generator: Adobe Illustrator 21.1.0, SVG Export Plug-In . SVG Version: 6.00 Build 0)  -->
<svg version="1.1" id="Layer_1" xmlns="http://www.w3.org/2000/svg" xmlns:xlink="http://www.w3.org/1999/xlink" x="0px" y="0px"
	 viewBox="0 0 100 100" style="enable-background:new 0 0 100 100;" xml:space="preserve">
<path d="M70.4,40.4c0-2.1-1.8-3.8-3.8-3.8c-2.3,0-3.9,1.7-3.9,3.8c0,2.1,1.7,3.8,3.9,3.8C68.6,44.1,70.4,42.5,70.4,40.4
	L70.4,40.4z M28.7,40.4c0,2.1,1.7,3.8,3.8,3.8c2,0,3.8-1.7,3.8-3.8c0-2.1-1.8-3.8-3.8-3.8C30.4,36.6,28.7,38.3,28.7,40.4L28.7,40.4z
	 M40,25.2H24.8v3.8H40V25.2z M70,66.8c-0.8-2.3-2.7-3.8-5.3-3.8h-2v3.8H70z M70,70.8h-7.2v3.8h2C67.3,74.5,69.2,73,70,70.8L70,70.8z
	 M59,63.1h-7.5v3.8H59V63.1z M59,70.8h-7.5v3.8H59V70.8z M47.5,63.1H40v3.8h7.5V63.1z M47.5,70.8H40v3.8h7.5V70.8z M36.3,63.1h-2
	c-2.3,0-4.5,1.5-5.3,3.8h7.2V63.1z M36.1,70.8H29c0.7,2.3,2.6,3.8,5.3,3.8h1.8V70.8z M74.2,68.8c0,5.3-4.2,9.5-9.5,9.5H34.3
	c-5.3,0-9.5-4.2-9.5-9.5c0-5.4,4.2-9.5,9.5-9.5h30.4C70,59.3,74.2,63.4,74.2,68.8L74.2,68.8z M59,25.2h15.2v3.8H59V25.2z M68.5,5
	H30.4c-7.1,0-13.5,2.9-18.2,7.5c-4.5,4.7-7.5,11.1-7.5,18.2v38.1c0,7.1,3,13.5,7.5,18.2c4.7,4.7,11.1,7.7,18.2,7.7h38.1
	c7.2,0,13.5-3,18.2-7.7c4.8-4.7,7.7-11.1,7.7-18.2V30.7c0-7.1-2.9-13.5-7.7-18.2C82,7.9,75.7,5,68.5,5L68.5,5z M30.4,0.3h38.1
	c8.4,0,16.1,3.5,21.5,8.9c5.6,5.6,9,13.2,9,21.5v38.1c0,8.4-3.5,16.1-9,21.5c-5.4,5.6-13.1,9-21.5,9H30.4c-8.3,0-15.9-3.5-21.5-9
	C3.5,84.9,0,77.2,0,68.8V30.7c0-8.3,3.5-15.9,8.9-21.5C14.4,3.8,22.1,0.3,30.4,0.3L30.4,0.3z"/>
</svg>
